<svg xmlns="http://www.w3.org/2000/svg" xmlns:xlink="http://www.w3.org/1999/xlink" viewBox="0 0 522.81 588.19"><defs><style>.cls-1{fill:url(#linear-gradient);}.cls-2{fill:url(#linear-gradient-2);}</style><linearGradient id="linear-gradient" x1="258.11" y1="45.45" x2="273.43" y2="315.07" gradientUnits="userSpaceOnUse"><stop offset="0" stop-color="#d02866"/><stop offset="1" stop-color="#a71e72"/></linearGradient><linearGradient id="linear-gradient-2" x1="244.09" y1="173.56" x2="-7.14" y2="473.81" xlink:href="#linear-gradient"/></defs><g id="Layer_2" data-name="Layer 2"><g id="Layer_1-2" data-name="Layer 1"><path class="cls-1" d="M334.6,376.42h-143a45.55,45.55,0,1,1,0-91.1h143a97.11,97.11,0,0,0,0-194.22H46.85a45.55,45.55,0,0,1,0-91.1H334.6a188.25,188.25,0,0,1,73.28,361.61A187.24,187.24,0,0,1,334.6,376.42Z"/><path class="cls-2" d="M45.55,588.19A45.55,45.55,0,0,1,0,542.64V330.87A188.09,188.09,0,0,1,188.21,142.66H324.58a45.55,45.55,0,1,1,0,91.1H188.21A97.22,97.22,0,0,0,91.1,330.87V542.64A45.55,45.55,0,0,1,45.55,588.19Z"/></g></g></svg>