<?xml version="1.0" encoding="utf-8"?>
<!-- Generator: Adobe Illustrator 26.0.1, SVG Export Plug-In . SVG Version: 6.00 Build 0)  -->
<svg version="1.1" id="Layer_1" xmlns="http://www.w3.org/2000/svg" xmlns:xlink="http://www.w3.org/1999/xlink" x="0px" y="0px"
	 viewBox="0 0 1883.5 2155.7" style="enable-background:new 0 0 1883.5 2155.7;" xml:space="preserve">
<style type="text/css">
	.st0{fill:#DC2B60;}
	.st1{fill:#BF226A;}
	.st2{fill:#CF2765;}
	.st3{fill:#C12269;}
	.st4{fill:#A71B71;}
	.st5{fill:#B01D6E;}
	.st6{fill:#CB2666;}
</style>
<g>
	<path class="st0" d="M1464.7,864.3c1.4-75.1-9.7-148.1-46.9-214.5c-78.5-140.1-199-215-359.6-216.6c-258.8-2.5-517.8-0.5-776.6-1
		c-103.6,0-179.2-78.1-176.4-179.9c2.3-89.7,76.2-166.5,166.5-166.9c271.7-1.3,542.9-5.4,814.2,0.8
		c401.1,9.1,722.5,342.7,725.2,744.2c0.4,54.8-1,109.5-17.3,162.4c-14.9,11.1-9.8,29.2-14.1,43.6c-10.1,33.8-27.8,58.6-62,68.6
		c-11.6,3.4-13.8,11.6-18.8,19.5c-6.4,10.3-17.3,21.6-25.2,3.9c-12.1-27.6-34.7-45-54.3-65.4c-17.3-18-18.3-21.8-1.3-45.4
		c-20.3-9.5-40.9-8.8-61.3-5.4c-14.1,2.6-28.5,3.7-42.9,3.5c-40.8-1.2-60.9-32.2-46.5-70.5C1477.4,918.2,1471.2,891.1,1464.7,864.3z
		"/>
	<path class="st1" d="M1480.5,1458.2c-78.7,58.4-167.2,94.5-262.3,115.6c-51.7,11.3-104.5,17-157.4,17c-86.7,0.3-173.4,1.1-259.7,0
		c-85.4-0.7-157.4-63.8-169.5-148.3c-11.6-89.9,40.5-169.3,127.2-193.8c17.8-4.1,36.1-5.8,54.4-5c59.6,0,119.4-1.5,179.2,0
		c93.6,2.8,184.3-7.2,268.4-52c3.4,20.6-15.2,23.9-26.2,32.7c-9.1,7.2-21.2,8.7-32.6,12.7c5.3,2.8,10.4,0.9,15.4,1.4
		c13.1,1.3,30.9-1.5,32.5,16.1c1.7,19.5-14.6,24.4-27.5,25.3c35.3,5.8,74.6,10.1,113.9,14.4c20.9,2.3,35.6,13.1,36.4,34.1
		c1.3,34.7,34.3,46.8,48,72.4c3.1,4.7,9.4,5.9,14,2.9c0.5-0.3,1-0.7,1.5-1.2c14.9-12.1,31.1-6.1,47-4.9c7.9,0.6,16,0.9,18.2,10.5
		c1.4,7.8-1.6,15.7-7.8,20.6c-8.7,9.3-21.4,13.8-34,12.1c-7.4-1-14.9-3.6-25.4,4.4C1452.6,1446.8,1470.9,1440.3,1480.5,1458.2z"/>
	<path class="st2" d="M995.2,667.9c120.7-14.7,186.7,59,205,127.2c20.7,77.5-14.3,160-83.8,195.3c-6.1-3.3-13.7-2.8-19.2,1.4
		c-44.8,26.5-92.9,19.2-140.5,13.5c-40.1-4.8-80.9-5.8-120.4-13.5c-16.4-3.3-32.2-7.5-37.1-27c-4-16-17.9-19.3-31.1-21.9
		c-34.7-6.8-62.4-29.8-93.7-41.9c-44.4-17.1-72-60.1-121.4-68.4c-19.7-3.4-34.7-23.1-53.4-33.2c-15.5-8.2-28.2-12.3-45.7-4.4
		c-22.5,10.1-30.6,3.2-26-20.8c2.2-11.2,0-16.1-10.1-19.2c-5.2-1.6-12.1-3.1-11.6-10.5c0.6-7.4,7.3-10.7,14-12.6
		c6.5-2,13.3-2.3,20-1c11.9,2.5,21.1,4.3,26.1-12.3s26.4-12.8,37.2-23.5c12.1,4.7,18.4-10.1,29.6-8.7c13.5-1,28.1,4,39.6-7.4
		c18.8-7.3,38.5-8,58.3-8.5c25.6,8.1,51.3,0,77,0c86.2,0.3,172.5,0,258.7,0C976.4,670.5,986.2,672.8,995.2,667.9z"/>
	<path class="st3" d="M503.8,694.9c-9.2,17.3-42.5,17.3-34,48.1c1.1,4-8.8,3.8-14.2,0c-14.9-9.9-29.8-8.2-45.4-1.3
		c3.7,9.5,10.3,5.8,15.3,6.4c18.2,1.8,26.8,7.5,11.2,24.6c-4.7,5-9.7,10.7-4.9,17.3c3.5,4.4,10,5.1,14.4,1.6c0.4-0.3,0.8-0.7,1.1-1
		c38-32.3,59.9,8.5,86.7,20.7c13.1,5.8,24,15.4,39.6,19.7c20.4,5.5,42.6,13.2,53.7,35.5c2,4.1,6.1,9.7,9.7,10.1
		c51.1,6.5,82.7,56.8,136.3,59.4c16.1,0.8,39.5,4.2,34.3,34.4c-1.6,9.1,15.1,11.2,23.7,12.5c36.8,5.8,73.8,9.1,110.7,13.6
		c27.4,3.4,54.9,6.8,82.2,10.6c19.4,2.7,35.5-6.1,52-13.6c12.9-5.8,25.5-14.8,40-3.6c-37.4,22.7-78.5,24.6-120.9,24.2
		c-93.2-1.1-186.5,1.3-279.7-0.8c-110.6-2.4-201.7,31.7-262.9,128.7c-19.9,20.5-24.8,46.2-26,73.5l-2.3,6.8
		c-15.7,8.1-36.4-9.8-50.9,11.6c-4.5,6.7-12.9-4.5-14.3-12c-3-16-12.4-17.3-25.3-12.8c-3.7,1.1-7.4,1.9-11.2,2.5
		c-52.5,10.9-59.2,6.5-69.4-45.8c-3.3-17-8.7-31.4-28.2-35.4c-16-3.2-32.2-9.3-43.2,9.9c-3.4,5.8-9,11.1-16.6,7.6
		c-9.1-4.2-13.8-14.5-10.9-24.2c2.8-15.1,7.1-30.1-3.7-44.4c-13.8-1.4-19.4,23.1-33.9,13.2c-11.2-7.3-3.5-21.3-4-32.4
		C181.5,873.1,311.4,750.5,503.8,694.9z"/>
	<path class="st4" d="M76.2,1250.4l1.1-22.1c18.2,5.8,13,21.8,13.2,33.9c1,54.9,0,109.8,0.5,164.6c0,35.4,2.7,38,37.7,46.2
		c33,7.5,40.5,15.3,40.5,48.8c0,17.1,6.5,28.2,20.6,34.7c48.8,22.5,91.6,56.4,142.8,74.3c11.6,4,18.1,5.1,27.4-4.7
		c14.4-15.4,22.3-12.9,29.4,7.8c7.5,24,9.7,49.3,6.3,74.2c-0.6,5.3-2.5,11.6,4.2,15.8c5.8-12,3.4-24.6,3.4-36.8
		c0-111.7,0-223.3,0.3-335.2c0-14.9-2.9-31.1,10.2-43c8.6,2,6.7,8.7,6.7,14c0,192.7,0,385.2,0,577.5c0.1,3.9-0.6,7.7-2.2,11.2
		c-1.5,87.6-76.9,160.2-167,161.1c-94.2,1-171.7-68-175.1-156.1c-3.5-7.3-2.1-15.1-2.1-22.7c0-207.2,0-414.3,0-621.5
		C73.8,1265.4,72.3,1257.6,76.2,1250.4z"/>
	<path class="st5" d="M418.1,1911.7v-603.1c-9,15.1-6.2,24.8-6.2,34c-0.2,122.1-0.2,244.3,0,366.5c0,12.4,2.4,25.7-10.6,33.8
		c-1.8,1.1-6.9,0.8-7.6-0.4c-6.5-11.6-11.1-23.1-7.5-37.7c7.2-29.5,0-57.8-9.9-86.7c-3.9,2-6.8,2.5-7.1,3.6
		c-6.7,27.5-14,30-43.7,16.4c-48-22.1-90.7-53.6-139.7-73.7c-15.7-6.5-36.5-15.9-23.8-44.1c8.4-18.5-7.2-35.4-29.5-38.3
		c-49-6.2-50.1-7.5-50.1-56.3c0-56.8,0-113.5,0-170.3c0-9.3,3.1-19.5-4.9-27.5c2-57.5,14-114.3,35.5-167.6c8.4,8.5,0.6,20.7,7.3,31
		c2.8-2.3,5.9-4.2,9.2-5.8c11-4,11.6-30.5,24.5-19.5c12.8,12.1,17.4,30.6,11.6,47.2c-1,2.7-2.2,5.3-3.6,7.8
		c-5.1,9.2-2.8,18.6,5.8,22c8.6,3.4,10.5-7.1,12-12.8c1.5-8.6,9.6-14.3,18.2-12.8c1.4,0.2,2.8,0.7,4,1.3
		c18.5,6.5,44.1-2.4,53.9,24.2c3.8,12.8,6.2,25.9,7.2,39.2c3.4,23.1,16.2,33.4,40.1,27.5c8.3-2.1,17.7-1.6,24.9-5.5
		c29.5-15.5,42.1-6.5,39.2,25.1c6.3,2.4,8.2-0.3,10-4.1c7.6-15.8,15.4-28.9,31.8-6.8c2.5,3.5,10.5,2.9,16,4.2
		c-8.3,218.2-1.6,436.6-3.8,654.9C420.7,1889,423.3,1900.7,418.1,1911.7z"/>
	<path class="st6" d="M1480.5,1458.2c-11.9-2-22.6-12.8-36.1-4.2c-5.4,3.4-12.3,8.1-18.3,1.6s0-12.5,2.2-18.6
		c3.6-9.1,10-11,18.4-7.1c15.4,7.3,29.7,6.4,42.4-5.8c5-4.7,10.7-10.1,7.1-17.3s-10.5,0-15.1-1.2c-17.3-4.5-33.1-8.4-48.1,8.9
		c-6.7,7.7-18.4-0.6-21.5-11c-3.6-14.2-14-25.8-27.8-30.7c-12.4-4.7-11.6-15.6-13.5-26.2c-7.8-42.9-12.1-48.5-55.6-48.7
		c-35.9,0-69.8-12.1-105.4-12.5c-6.8,0-15.6-2-14.3-10.3c1.7-10.8,10.1-5,15.9-3.1c7.3,2.7,15.4,2.2,22.3-1.4
		c7.5-3.7,14-9.1,12.3-17.3c-1.7-8.3-9.9-7.9-16.8-7.9h-51.7c29.7-24.9,68.7-22.3,83.8-54c121.7-75.5,187.8-185.8,203.9-327.1
		c16.5,16.6,21,62.9,8.4,86c-13.7,25,5,56.2,33.7,58.6c35.3,3,70-15.1,105.4-1.7c7.7,2.9,19.7,0,21.5,10.7
		c1.8,10.7-10.9,8.1-16.6,12.2c-14.6,10.6-5.3,20,3.3,24.3c22.3,11.1,27.6,39.5,52,48.1c13,4.6-5.8,28.9,14.3,27
		c14.4-1.4,4.5-20.4,12.8-29.3c9.4-10.1,19.5,1.9,29.6-3.9c31-17.8,54.8-60.5,50.4-96.3c-0.9-7.1-3.8-14,4.5-17.3
		c8.3-3.4,8.4,4.9,9.9,10c-38.3,188.6-137.6,338.1-290.8,452.9C1495.9,1450.7,1489.8,1457.5,1480.5,1458.2z"/>
	<path class="st5" d="M76.2,1250.4c0,222.3,0,444.5,0,666.7c-4.9-7.9-3.4-16.8-3.4-25.3c0-204.5,0-408.9,0-613.3
		C72.8,1269.1,70.8,1259.3,76.2,1250.4z"/>
	<path class="st3" d="M995.2,667.9c-8.7,9-19.9,5.3-29.9,5.3c-80.5,0.3-160.9,1-241.3,0c-23.1-0.3-45.3,7.5-68.2,6.1
		c-8.8-0.5-20,4.4-24.4-8.7c59.1-6.8,118.4-2.9,177.6-3.4C871,666.4,933,667.5,995.2,667.9z"/>
	<path class="st5" d="M427,1216.1c-7.9-28.9,4-52.8,19.3-75.7c0.3-0.5,4.4,1.4,6.7,2.3L427,1216.1z"/>
	<path class="st3" d="M573,678.6c3.2,1.4,12.4,2,3.5,6.9c-13.3,7.8-29.7,8-43.1,0.5C545.9,680.8,559.4,678.3,573,678.6z"/>
	<path class="st6" d="M1381.4,1435.4c-6.7,0.4-12.5-4.8-12.8-11.5c0-0.6,0-1.2,0-1.9c-0.7-7.2,4.6-13.6,11.8-14.3
		c0.9-0.1,1.8-0.1,2.7,0c7.2,0,14.5,2.5,14.4,10.8C1397.3,1428.3,1389.5,1432.8,1381.4,1435.4z"/>
</g>
</svg>
