<svg xmlns="http://www.w3.org/2000/svg" viewBox="0 0 226.6 266.94" fill="currentColor"><path class="a" d="M136.09,66.76c-38-1.15-68.84,28.36-69.17,66.73-.26,30.88-.06,61.75-.06,92.62,0,26.49.19,26.77,25.81,34.44a9,9,0,0,1,.85.36c5.1,2,6.9.61,6.83-5.16-.32-21-.13-41.94-.13-64.05,3.89,1.65,6.38,2.74,8.92,3.78,41.72,16.84,88.74-13.06,91.08-57.93C202.19,99.87,173.19,67.87,136.09,66.76Zm-2.89,100a33.32,33.32,0,1,1,33.72-33.15A33.16,33.16,0,0,1,133.2,166.78Z"/><path class="a" d="M33.48,221.37C13.31,198.06,3.12,172.86.54,144.63-4.37,91,24.77,39.23,73.3,14.47a133.64,133.64,0,0,1,148,18.21c6,5.17,6.31,8.19.17,13.14-5.73,4.62-9.91,13.14-16.1,14.72-6.52,1.65-11.34-7.66-17.53-11.36-33.14-19.8-67.3-22.06-101.28-3.8S34.7,93.06,33.66,131.74c-.72,26.54-.17,53.1-.18,79.66C33.47,214,33.48,216.69,33.48,221.37Z"/><path class="a" d="M133.61,249.89c0-14.93,0-15.11,14.3-17.32,19.73-3,37.21-10.87,52-24.29,3.57-3.25,5.59-3.41,8.82.2a217.06,217.06,0,0,0,15.7,15.68c3.12,2.84,2.82,4.56-.15,7.25q-36,32.55-84.3,35.49c-4.7.28-6.92-.78-6.4-5.91A111,111,0,0,0,133.61,249.89Z"/></svg>