<svg id="Layer_1" data-name="Layer 1" xmlns="http://www.w3.org/2000/svg" viewBox="0 0 300.83 344.3"><defs><style>.cls-1{fill:#dc2b60;}.cls-2{fill:#bf226a;}.cls-3{fill:#cf2765;}.cls-4{fill:#c12269;}.cls-5{fill:#a71b71;}.cls-6{fill:#b01d6e;}.cls-7{fill:#cb2666;}</style></defs><path class="cls-1" d="M337.54,200.13c.24-13-1.68-25.63-8.12-37.11-13.59-24.24-34.43-37.2-62.22-37.47-44.78-.43-89.58-.08-134.37-.17-17.92,0-31-13.51-30.52-31.13.4-15.52,13.19-28.81,28.81-28.88,47-.22,93.93-.93,140.87.14,69.39,1.58,125,59.3,125.47,128.76.07,9.48-.17,18.94-3,28.1-2.57,1.92-1.69,5.06-2.44,7.55-1.74,5.84-4.81,10.14-10.72,11.87-2,.58-2.38,2-3.25,3.37-1.1,1.78-3,3.74-4.36.68-2.09-4.77-6-7.78-9.4-11.31-3-3.12-3.16-3.78-.22-7.85-3.52-1.65-7.07-1.53-10.61-.94a38.51,38.51,0,0,1-7.42.61c-7.06-.21-10.54-5.57-8.05-12.2C339.73,209.46,338.66,204.78,337.54,200.13Z" transform="translate(-96.64 -64.93)"/><path class="cls-2" d="M340.27,302.89c-13.61,10.1-28.93,16.35-45.38,20a127.88,127.88,0,0,1-27.24,2.94c-15,.05-30,.19-44.93,0a29.88,29.88,0,0,1-29.32-25.66c-2-15.56,7-29.3,22-33.53a35.14,35.14,0,0,1,9.41-.87c10.32,0,20.65-.26,31,0,16.2.49,31.89-1.25,46.44-9,.59,3.56-2.63,4.14-4.54,5.65-1.57,1.24-3.67,1.5-5.64,2.2.91.48,1.8.15,2.66.24,2.26.23,5.35-.26,5.62,2.78.3,3.38-2.53,4.23-4.76,4.38,6.1,1,12.91,1.75,19.71,2.5,3.61.39,6.16,2.27,6.3,5.9.23,6,5.93,8.1,8.3,12.52a1.75,1.75,0,0,0,2.68.29c2.57-2.09,5.38-1.05,8.14-.84,1.36.1,2.77.15,3.15,1.82a3.71,3.71,0,0,1-1.35,3.57,6.83,6.83,0,0,1-5.89,2.1c-1.28-.17-2.58-.63-4.39.76C335.44,300.91,338.61,299.8,340.27,302.89Z" transform="translate(-96.64 -64.93)"/><path class="cls-3" d="M256.3,166.16c20.88-2.54,32.3,10.2,35.46,22,3.59,13.41-2.48,27.69-14.49,33.79a3.09,3.09,0,0,0-3.33.24c-7.75,4.59-16.08,3.33-24.3,2.33-6.94-.83-14-1-20.83-2.34-2.84-.57-5.57-1.3-6.42-4.67-.7-2.76-3.09-3.34-5.38-3.79-6-1.18-10.79-5.16-16.22-7.25-7.68-2.95-12.46-10.39-21-11.84-3.41-.58-6-4-9.24-5.75-2.69-1.42-4.88-2.12-7.91-.76-3.9,1.75-5.3.55-4.49-3.6.38-1.94,0-2.78-1.75-3.33-.9-.28-2.1-.54-2-1.82s1.26-1.85,2.42-2.18a7.25,7.25,0,0,1,3.46-.18c2.06.43,3.65.75,4.52-2.12s4.57-2.21,6.44-4.06c2.1.81,3.19-1.75,5.12-1.51,2.33-.17,4.86.69,6.86-1.28,3.25-1.26,6.66-1.39,10.08-1.47,4.43,1.4,8.88,0,13.32,0,14.92.06,29.84,0,44.76,0C253.05,166.6,254.74,167,256.3,166.16Z" transform="translate(-96.64 -64.93)"/><path class="cls-4" d="M171.28,170.83c-1.6,3-7.35,3-5.89,8.33.19.69-1.53.66-2.46,0-2.57-1.71-5.15-1.42-7.86-.23.64,1.65,1.79,1,2.64,1.11,3.15.32,4.64,1.3,1.94,4.25-.81.87-1.68,1.85-.84,3a1.77,1.77,0,0,0,2.68.09c6.58-5.58,10.37,1.47,15,3.59,2.27,1,4.15,2.67,6.85,3.4,3.53.95,7.37,2.29,9.29,6.14.35.71,1.05,1.67,1.68,1.75,8.84,1.13,14.31,9.82,23.59,10.27,2.78.14,6.84.73,5.94,5.95-.27,1.58,2.61,1.93,4.1,2.16,6.36,1,12.77,1.57,19.16,2.36,4.74.58,9.49,1.18,14.22,1.84,3.35.47,6.14-1.06,9-2.36,2.24-1,4.42-2.56,6.92-.62-6.47,3.92-13.59,4.26-20.92,4.18-16.13-.19-32.27.22-48.39-.13-19.13-.41-34.9,5.48-45.48,22.27-3.45,3.55-4.29,8-4.5,12.71l-.39,1.17c-2.71,1.41-6.3-1.7-8.8,2-.78,1.16-2.24-.77-2.48-2.08-.52-2.76-2.14-3-4.38-2.21a15.6,15.6,0,0,1-1.94.44c-9.08,1.88-10.25,1.13-12-7.93-.57-2.94-1.51-5.44-4.88-6.12-2.77-.56-5.57-1.61-7.47,1.71-.59,1-1.56,1.92-2.87,1.32a3.51,3.51,0,0,1-1.89-4.18c.49-2.62,1.22-5.2-.64-7.69-2.39-.25-3.35,4-5.87,2.29-1.93-1.26-.6-3.68-.7-5.6C115.53,201.66,138,180.45,171.28,170.83Z" transform="translate(-96.64 -64.93)"/><path class="cls-5" d="M97.3,266.93l.19-3.82c3.15,1,2.25,3.77,2.29,5.86.17,9.49,0,19,.09,28.47,0,6.12.46,6.57,6.53,8,5.71,1.3,7,2.64,7,8.45,0,2.95,1.13,4.88,3.56,6,8.44,3.89,15.84,9.75,24.7,12.86,2,.69,3.14.89,4.74-.81,2.5-2.66,3.86-2.23,5.08,1.35a29.65,29.65,0,0,1,1.09,12.84c-.1.91-.43,2,.73,2.74,1-2.08.58-4.26.59-6.36,0-19.32,0-38.64.05-58,0-2.58-.51-5.38,1.76-7.44,1.48.34,1.16,1.51,1.16,2.42q0,50,0,99.92a4.32,4.32,0,0,1-.38,1.94c-.26,15.15-13.3,27.72-28.9,27.88-16.29.17-29.7-11.77-30.29-27-.61-1.26-.37-2.61-.37-3.92q0-53.76,0-107.52C96.89,269.54,96.63,268.18,97.3,266.93Z" transform="translate(-96.64 -64.93)"/><path class="cls-6" d="M156.45,381.35V277c-1.55,2.61-1.07,4.29-1.07,5.89q-.06,31.69,0,63.41c0,2.14.41,4.44-1.83,5.85-.31.19-1.19.14-1.31-.07-1.12-2-1.92-4-1.29-6.53,1.25-5.11,0-10-1.72-15-.68.34-1.17.43-1.22.63-1.16,4.76-2.43,5.19-7.56,2.83-8.31-3.82-15.7-9.27-24.17-12.75-2.72-1.12-6.32-2.75-4.12-7.63,1.45-3.2-1.25-6.13-5.1-6.62-8.47-1.08-8.66-1.29-8.66-9.74,0-9.82,0-19.64,0-29.46,0-1.61.54-3.37-.85-4.75a85.19,85.19,0,0,1,6.15-29c1.45,1.47.11,3.58,1.27,5.36a8.5,8.5,0,0,1,1.59-1c1.91-.7,2-5.28,4.24-3.37a7.73,7.73,0,0,1,2,8.17,9.73,9.73,0,0,1-.63,1.35c-.89,1.6-.48,3.22,1,3.81s1.81-1.22,2.07-2.21a2.72,2.72,0,0,1,3.84-2c3.2,1.13,7.63-.41,9.33,4.18a32.08,32.08,0,0,1,1.24,6.79c.59,4,2.81,5.78,6.94,4.75,1.43-.36,3.06-.28,4.31-.95,5.1-2.69,7.29-1.12,6.78,4.35,1.09.41,1.42-.05,1.73-.71,1.31-2.73,2.66-5,5.5-1.17.44.6,1.82.5,2.77.73-1.43,37.76-.27,75.53-.66,113.3C156.91,377.42,157.36,379.44,156.45,381.35Z" transform="translate(-96.64 -64.93)"/><path class="cls-7" d="M340.27,302.89c-2.06-.34-3.91-2.21-6.24-.73-.94.59-2.12,1.4-3.17.28s0-2.16.38-3.21c.62-1.57,1.73-1.91,3.19-1.22,2.67,1.26,5.13,1.11,7.34-1,.86-.81,1.85-1.75,1.23-3s-1.81,0-2.61-.21c-3-.77-5.72-1.45-8.32,1.54-1.16,1.34-3.18-.11-3.72-1.9a7.62,7.62,0,0,0-4.81-5.32c-2.14-.81-2-2.7-2.34-4.53-1.35-7.42-2.1-8.39-9.62-8.43-6.21,0-12.08-2.1-18.23-2.17-1.18,0-2.7-.35-2.48-1.79.29-1.86,1.75-.86,2.75-.53a4.77,4.77,0,0,0,3.86-.24c1.29-.64,2.42-1.57,2.13-3s-1.71-1.36-2.9-1.36h-8.94c5.14-4.3,11.88-3.86,14.49-9.35,21.05-13.07,32.5-32.14,35.28-56.6C340.4,203,341.17,211,339,215c-2.37,4.32.86,9.72,5.83,10.14,6.1.52,12.11-2.61,18.23-.29,1.33.51,3.41,0,3.72,1.85s-1.89,1.4-2.87,2.11c-2.52,1.83-.91,3.46.57,4.2,3.86,1.92,4.78,6.83,9,8.32,2.25.8-1,5,2.47,4.67,2.49-.25.78-3.53,2.21-5.07,1.62-1.74,3.37.33,5.12-.67,5.36-3.08,9.48-10.46,8.72-16.66-.15-1.22-.66-2.42.77-3s1.45.84,1.72,1.73c-6.63,32.63-23.8,58.5-50.31,78.36C342.94,301.6,341.88,302.76,340.27,302.89Z" transform="translate(-96.64 -64.93)"/><path class="cls-6" d="M97.3,266.93q0,57.68,0,115.35c-.85-1.37-.58-2.9-.58-4.37q0-53.06,0-106.11C96.71,270.17,96.37,268.47,97.3,266.93Z" transform="translate(-96.64 -64.93)"/><path class="cls-4" d="M256.3,166.16c-1.5,1.56-3.44.91-5.18.91-13.92.06-27.84.17-41.75,0-4-.06-7.83,1.3-11.8,1.06-1.52-.09-3.46.76-4.23-1.51,10.22-1.18,20.48-.5,30.72-.59C234.81,165.89,245.55,166.09,256.3,166.16Z" transform="translate(-96.64 -64.93)"/><path class="cls-6" d="M158,261c-1.37-5,.69-9.13,3.34-13.1.06-.09.76.25,1.16.39Z" transform="translate(-96.64 -64.93)"/><path class="cls-4" d="M183.26,168c.56.25,2.15.35.6,1.2a7.52,7.52,0,0,1-7.46.08A17,17,0,0,1,183.26,168Z" transform="translate(-96.64 -64.93)"/><path class="cls-7" d="M323.12,298.94a2.11,2.11,0,0,1-2.21-2.32,2.27,2.27,0,0,1,2.5-2.48c1.25,0,2.51.44,2.49,1.86C325.88,297.71,324.52,298.49,323.12,298.94Z" transform="translate(-96.64 -64.93)"/></svg>