<?xml version="1.0" encoding="utf-8"?>
<!-- Generator: Adobe Illustrator 26.0.1, SVG Export Plug-In . SVG Version: 6.00 Build 0)  -->
<svg version="1.1" id="svgQrWrapper" xmlns="http://www.w3.org/2000/svg" xmlns:xlink="http://www.w3.org/1999/xlink" x="0px"
	 y="0px" viewBox="0 0 300 300" style="enable-background:new 0 0 300 300;" xml:space="preserve">
<style type="text/css">
	.st0{fill:none;}
	.st1{fill:#E5E5E5;}
	.st2{clip-path:url(#SVGID_00000046328679511949096830000005839309554151548349_);}
	.st3{fill:#4285F4;}
	.st4{fill:#34A853;}
	.st5{fill:#FBBC04;}
	.st6{fill:#EA4335;}
	.st7{fill:#C5221F;}
</style>
<path class="st0" d="z"/>
<g>
	<circle cx="18.5" cy="113.5" r="3.2"/>
	<circle cx="18.5" cy="132.5" r="3.2"/>
	<circle cx="18.5" cy="142" r="3.2"/>
	<circle cx="18.5" cy="161" r="3.2"/>
	<circle cx="18.5" cy="180" r="3.2"/>
	<circle cx="18.5" cy="189.5" r="3.2"/>
	<circle cx="28" cy="104" r="3.2"/>
	<circle cx="28" cy="142" r="3.2"/>
	<circle cx="28" cy="161" r="3.2"/>
	<circle cx="28" cy="199" r="3.2"/>
	<circle cx="37.5" cy="94.5" r="3.2"/>
	<circle cx="37.5" cy="104" r="3.2"/>
	<circle cx="37.5" cy="123" r="3.2"/>
	<circle cx="37.5" cy="132.5" r="3.2"/>
	<circle cx="37.5" cy="151.5" r="3.2"/>
	<circle cx="37.5" cy="161" r="3.2"/>
	<circle cx="37.5" cy="170.5" r="3.2"/>
	<circle cx="37.5" cy="180" r="3.2"/>
	<circle cx="37.5" cy="189.5" r="3.2"/>
	<circle cx="47" cy="113.5" r="3.2"/>
	<circle cx="47" cy="142" r="3.2"/>
	<circle cx="47" cy="170.5" r="3.2"/>
	<circle cx="47" cy="189.5" r="3.2"/>
	<circle cx="56.5" cy="94.5" r="3.2"/>
	<circle cx="56.5" cy="104" r="3.2"/>
	<circle cx="56.5" cy="142" r="3.2"/>
	<circle cx="56.5" cy="161" r="3.2"/>
	<circle cx="56.5" cy="189.5" r="3.2"/>
	<circle cx="66" cy="94.5" r="3.2"/>
	<circle cx="66" cy="104" r="3.2"/>
	<circle cx="66" cy="123" r="3.2"/>
	<circle cx="66" cy="142" r="3.2"/>
	<circle cx="66" cy="151.5" r="3.2"/>
	<circle cx="66" cy="199" r="3.2"/>
	<circle cx="66" cy="208.5" r="3.2"/>
	<circle cx="75.5" cy="94.5" r="3.2"/>
	<circle cx="75.5" cy="113.5" r="3.2"/>
	<circle cx="75.5" cy="132.5" r="3.2"/>
	<circle cx="75.5" cy="151.5" r="3.2"/>
	<circle cx="75.5" cy="170.5" r="3.2"/>
	<circle cx="75.5" cy="189.5" r="3.2"/>
	<circle cx="75.5" cy="208.5" r="3.2"/>
	<circle cx="85" cy="113.5" r="3.2"/>
	<circle cx="85" cy="123" r="3.2"/>
	<circle cx="85" cy="142" r="3.2"/>
	<circle cx="85" cy="170.5" r="3.2"/>
	<circle cx="85" cy="180" r="3.2"/>
	<circle cx="85" cy="199" r="3.2"/>
	<circle cx="85" cy="208.5" r="3.2"/>
	<circle cx="94.5" cy="28" r="3.2"/>
	<circle cx="94.5" cy="56.5" r="3.2"/>
	<circle cx="94.5" cy="75.5" r="3.2"/>
	<circle cx="94.5" cy="94.5" r="3.2"/>
	<circle cx="94.5" cy="104" r="3.2"/>
	<circle cx="94.5" cy="113.5" r="3.2"/>
	<circle cx="94.5" cy="170.5" r="3.2"/>
	<circle cx="94.5" cy="189.5" r="3.2"/>
	<circle cx="94.5" cy="218" r="3.2"/>
	<circle cx="94.5" cy="237" r="3.2"/>
	<circle cx="94.5" cy="246.5" r="3.2"/>
	<circle cx="94.5" cy="265.5" r="3.2"/>
	<circle cx="104" cy="28" r="3.2"/>
	<circle cx="104" cy="37.5" r="3.2"/>
	<circle cx="104" cy="56.5" r="3.2"/>
	<circle cx="104" cy="66" r="3.2"/>
	<circle cx="104" cy="94.5" r="3.2"/>
	<circle cx="104" cy="104" r="3.2"/>
	<circle cx="104" cy="132.5" r="3.2"/>
	<circle cx="104" cy="161" r="3.2"/>
	<circle cx="104" cy="170.5" r="3.2"/>
	<circle cx="104" cy="189.5" r="3.2"/>
	<circle cx="104" cy="227.5" r="3.2"/>
	<circle cx="104" cy="237" r="3.2"/>
	<circle cx="104" cy="246.5" r="3.2"/>
	<circle cx="104" cy="275" r="3.2"/>
	<circle cx="104" cy="284.5" r="3.2"/>
	<circle cx="113.5" cy="18.5" r="3.2"/>
	<circle cx="113.5" cy="37.5" r="3.2"/>
	<circle cx="113.5" cy="56.5" r="3.2"/>
	<circle cx="113.5" cy="75.5" r="3.2"/>
	<circle cx="113.5" cy="85" r="3.2"/>
	<circle cx="113.5" cy="123" r="3.2"/>
	<circle cx="113.5" cy="132.5" r="3.2"/>
	<circle cx="113.5" cy="142" r="3.2"/>
	<circle cx="113.5" cy="151.5" r="3.2"/>
	<circle cx="113.5" cy="161" r="3.2"/>
	<circle cx="113.5" cy="180" r="3.2"/>
	<circle cx="113.5" cy="189.5" r="3.2"/>
	<circle cx="113.5" cy="208.5" r="3.2"/>
	<circle cx="113.5" cy="218" r="3.2"/>
	<circle cx="113.5" cy="237" r="3.2"/>
	<circle cx="113.5" cy="256" r="3.2"/>
	<circle cx="113.5" cy="265.5" r="3.2"/>
	<circle cx="113.5" cy="284.5" r="3.2"/>
	<circle cx="123" cy="18.5" r="3.2"/>
	<circle cx="123" cy="37.5" r="3.2"/>
	<circle cx="123" cy="56.5" r="3.2"/>
	<circle cx="123" cy="94.5" r="3.2"/>
	<circle cx="123" cy="189.5" r="3.2"/>
	<circle cx="123" cy="218" r="3.2"/>
	<circle cx="123" cy="237" r="3.2"/>
	<circle cx="123" cy="246.5" r="3.2"/>
	<circle cx="123" cy="256" r="3.2"/>
	<circle cx="123" cy="275" r="3.2"/>
	<circle cx="123" cy="284.5" r="3.2"/>
	<circle cx="132.5" cy="28" r="3.2"/>
	<circle cx="132.5" cy="37.5" r="3.2"/>
	<circle cx="132.5" cy="47" r="3.2"/>
	<circle cx="132.5" cy="56.5" r="3.2"/>
	<circle cx="132.5" cy="75.5" r="3.2"/>
	<circle cx="132.5" cy="94.5" r="3.2"/>
	<circle cx="132.5" cy="104" r="3.2"/>
	<circle cx="132.5" cy="189.5" r="3.2"/>
	<circle cx="132.5" cy="199" r="3.2"/>
	<circle cx="132.5" cy="208.5" r="3.2"/>
	<circle cx="132.5" cy="237" r="3.2"/>
	<ellipse transform="matrix(7.088915e-02 -0.9975 0.9975 7.088915e-02 -132.2488 370.019)" cx="132.5" cy="256" rx="3.2" ry="3.2"/>
	
		<ellipse transform="matrix(7.088915e-02 -0.9975 0.9975 7.088915e-02 -160.6771 396.4987)" cx="132.5" cy="284.5" rx="3.2" ry="3.2"/>
	<circle cx="142" cy="18.5" r="3.2"/>
	<circle cx="142" cy="28" r="3.2"/>
	<circle cx="142" cy="47" r="3.2"/>
	<circle cx="142" cy="56.5" r="3.2"/>
	<circle cx="142" cy="66" r="3.2"/>
	<circle cx="142" cy="113.5" r="3.2"/>
	<circle cx="142" cy="189.5" r="3.2"/>
	<circle cx="142" cy="208.5" r="3.2"/>
	<circle cx="142" cy="227.5" r="3.2"/>
	<circle cx="142" cy="246.5" r="3.2"/>
	<circle cx="142" cy="265.5" r="3.2"/>
	<circle cx="142" cy="284.5" r="3.2"/>
	<circle cx="151.5" cy="18.5" r="3.2"/>
	<circle cx="151.5" cy="47" r="3.2"/>
	<circle cx="151.5" cy="56.5" r="3.2"/>
	<circle cx="151.5" cy="75.5" r="3.2"/>
	<circle cx="151.5" cy="94.5" r="3.2"/>
	<circle cx="151.5" cy="189.5" r="3.2"/>
	<circle cx="151.5" cy="208.5" r="3.2"/>
	<circle cx="151.5" cy="218" r="3.2"/>
	<circle cx="151.5" cy="246.5" r="3.2"/>
	<circle cx="151.5" cy="284.5" r="3.2"/>
	<circle cx="161" cy="18.5" r="3.2"/>
	<circle cx="161" cy="37.5" r="3.2"/>
	<circle cx="161" cy="47" r="3.2"/>
	<circle cx="161" cy="85" r="3.2"/>
	<circle cx="161" cy="94.5" r="3.2"/>
	<circle cx="161" cy="218" r="3.2"/>
	<circle cx="161" cy="237" r="3.2"/>
	<circle cx="161" cy="256" r="3.2"/>
	<circle cx="170.5" cy="28" r="3.2"/>
	<circle cx="170.5" cy="37.5" r="3.2"/>
	<circle cx="170.5" cy="56.5" r="3.2"/>
	<circle cx="170.5" cy="75.5" r="3.2"/>
	<circle cx="170.5" cy="104" r="3.2"/>
	<circle cx="170.5" cy="199" r="3.2"/>
	<circle cx="170.5" cy="208.5" r="3.2"/>
	<circle cx="180" cy="18.5" r="3.2"/>
	<circle cx="180" cy="37.5" r="3.2"/>
	<circle cx="180" cy="47" r="3.2"/>
	<circle cx="180" cy="85" r="3.2"/>
	<circle cx="180" cy="104" r="3.2"/>
	<circle cx="180" cy="189.5" r="3.2"/>
	<circle cx="180" cy="218" r="3.2"/>
	<circle cx="180" cy="227.5" r="3.2"/>
	<circle cx="180" cy="237" r="3.2"/>
	<circle cx="180" cy="246.5" r="3.2"/>
	<circle cx="180" cy="284.5" r="3.2"/>
	<circle cx="189.5" cy="66" r="3.2"/>
	<circle cx="189.5" cy="75.5" r="3.2"/>
	<circle cx="189.5" cy="85" r="3.2"/>
	<circle cx="189.5" cy="113.5" r="3.2"/>
	<circle cx="189.5" cy="123" r="3.2"/>
	<circle cx="189.5" cy="151.5" r="3.2"/>
	<circle cx="189.5" cy="161" r="3.2"/>
	<circle cx="189.5" cy="180" r="3.2"/>
	<circle cx="189.5" cy="189.5" r="3.2"/>
	<circle cx="189.5" cy="246.5" r="3.2"/>
	<circle cx="189.5" cy="256" r="3.2"/>
	<circle cx="189.5" cy="284.5" r="3.2"/>
	<circle cx="199" cy="37.5" r="3.2"/>
	<circle cx="199" cy="47" r="3.2"/>
	<circle cx="199" cy="56.5" r="3.2"/>
	<circle cx="199" cy="85" r="3.2"/>
	<circle cx="199" cy="161" r="3.2"/>
	<circle cx="199" cy="170.5" r="3.2"/>
	<circle cx="199" cy="180" r="3.2"/>
	<circle cx="199" cy="189.5" r="3.2"/>
	<circle cx="199" cy="237" r="3.2"/>
	<circle cx="199" cy="275" r="3.2"/>
	<circle cx="199" cy="284.5" r="3.2"/>
	<circle cx="208.5" cy="18.5" r="3.2"/>
	<circle cx="208.5" cy="28" r="3.2"/>
	<circle cx="208.5" cy="47" r="3.2"/>
	<circle cx="208.5" cy="66" r="3.2"/>
	<circle cx="208.5" cy="75.5" r="3.2"/>
	<circle cx="208.5" cy="85" r="3.2"/>
	<circle cx="208.5" cy="94.5" r="3.2"/>
	<circle cx="208.5" cy="123" r="3.2"/>
	<circle cx="208.5" cy="132.5" r="3.2"/>
	<circle cx="208.5" cy="151.5" r="3.2"/>
	<circle cx="208.5" cy="180" r="3.2"/>
	<circle cx="208.5" cy="199" r="3.2"/>
	<circle cx="208.5" cy="208.5" r="3.2"/>
	<circle cx="208.5" cy="218" r="3.2"/>
	<circle cx="208.5" cy="227.5" r="3.2"/>
	<circle cx="208.5" cy="237" r="3.2"/>
	<circle cx="208.5" cy="246.5" r="3.2"/>
	<circle cx="208.5" cy="256" r="3.2"/>
	<circle cx="208.5" cy="275" r="3.2"/>
	<circle cx="208.5" cy="284.5" r="3.2"/>
	<circle cx="218" cy="94.5" r="3.2"/>
	<circle cx="218" cy="113.5" r="3.2"/>
	<circle cx="218" cy="132.5" r="3.2"/>
	<circle cx="218" cy="142" r="3.2"/>
	<circle cx="218" cy="161" r="3.2"/>
	<circle cx="218" cy="208.5" r="3.2"/>
	<circle cx="218" cy="246.5" r="3.2"/>
	<circle cx="218" cy="265.5" r="3.2"/>
	<circle cx="218" cy="284.5" r="3.2"/>
	<circle cx="227.5" cy="123" r="3.2"/>
	<circle cx="227.5" cy="161" r="3.2"/>
	<circle cx="227.5" cy="170.5" r="3.2"/>
	<circle cx="227.5" cy="180" r="3.2"/>
	<circle cx="227.5" cy="199" r="3.2"/>
	<circle cx="227.5" cy="208.5" r="3.2"/>
	<circle cx="227.5" cy="227.5" r="3.2"/>
	<circle cx="227.5" cy="246.5" r="3.2"/>
	<circle cx="227.5" cy="284.5" r="3.2"/>
	<circle cx="237" cy="104" r="3.2"/>
	<circle cx="237" cy="113.5" r="3.2"/>
	<circle cx="237" cy="123" r="3.2"/>
	<circle cx="237" cy="132.5" r="3.2"/>
	<circle cx="237" cy="151.5" r="3.2"/>
	<circle cx="237" cy="170.5" r="3.2"/>
	<circle cx="237" cy="180" r="3.2"/>
	<circle cx="237" cy="189.5" r="3.2"/>
	<circle cx="237" cy="199" r="3.2"/>
	<circle cx="237" cy="208.5" r="3.2"/>
	<circle cx="237" cy="246.5" r="3.2"/>
	<circle cx="237" cy="256" r="3.2"/>
	<circle cx="237" cy="275" r="3.2"/>
	<circle cx="246.5" cy="94.5" r="3.2"/>
	<circle cx="246.5" cy="104" r="3.2"/>
	<circle cx="246.5" cy="123" r="3.2"/>
	<circle cx="246.5" cy="189.5" r="3.2"/>
	<circle cx="246.5" cy="199" r="3.2"/>
	<circle cx="246.5" cy="208.5" r="3.2"/>
	<circle cx="246.5" cy="218" r="3.2"/>
	<circle cx="246.5" cy="227.5" r="3.2"/>
	<circle cx="246.5" cy="237" r="3.2"/>
	<circle cx="246.5" cy="246.5" r="3.2"/>
	<circle cx="246.5" cy="275" r="3.2"/>
	<circle cx="246.5" cy="284.5" r="3.2"/>
	<circle cx="256" cy="104" r="3.2"/>
	<circle cx="256" cy="123" r="3.2"/>
	<circle cx="256" cy="142" r="3.2"/>
	<circle cx="256" cy="170.5" r="3.2"/>
	<circle cx="256" cy="237" r="3.2"/>
	<circle cx="256" cy="275" r="3.2"/>
	<circle cx="265.5" cy="104" r="3.2"/>
	<circle cx="265.5" cy="123" r="3.2"/>
	<circle cx="265.5" cy="132.5" r="3.2"/>
	<circle cx="265.5" cy="170.5" r="3.2"/>
	<circle cx="265.5" cy="180" r="3.2"/>
	<circle cx="265.5" cy="199" r="3.2"/>
	<circle cx="265.5" cy="208.5" r="3.2"/>
	<circle cx="265.5" cy="218" r="3.2"/>
	<circle cx="265.5" cy="256" r="3.2"/>
	<circle cx="265.5" cy="265.5" r="3.2"/>
	<circle cx="265.5" cy="275" r="3.2"/>
	<circle cx="265.5" cy="284.5" r="3.2"/>
	<circle cx="275" cy="94.5" r="3.2"/>
	<circle cx="275" cy="132.5" r="3.2"/>
	<circle cx="275" cy="142" r="3.2"/>
	<circle cx="275" cy="180" r="3.2"/>
	<circle cx="275" cy="189.5" r="3.2"/>
	<circle cx="275" cy="199" r="3.2"/>
	<circle cx="275" cy="208.5" r="3.2"/>
	<circle cx="275" cy="227.5" r="3.2"/>
	<circle cx="275" cy="237" r="3.2"/>
	<circle cx="275" cy="256" r="3.2"/>
	<circle cx="275" cy="275" r="3.2"/>
	<circle cx="275" cy="284.5" r="3.2"/>
	<circle cx="284.5" cy="123" r="3.2"/>
	<circle cx="284.5" cy="132.5" r="3.2"/>
	<circle cx="284.5" cy="151.5" r="3.2"/>
	<circle cx="284.5" cy="161" r="3.2"/>
	<circle cx="284.5" cy="170.5" r="3.2"/>
	<circle cx="284.5" cy="180" r="3.2"/>
	<circle cx="284.5" cy="208.5" r="3.2"/>
	<circle cx="284.5" cy="218" r="3.2"/>
	<circle cx="284.5" cy="227.5" r="3.2"/>
	<circle cx="284.5" cy="246.5" r="3.2"/>
	<circle cx="284.5" cy="275" r="3.2"/>
</g>
<g>
	<path d="M13.8,37.5v19c0,13.1,10.6,23.8,23.8,23.8h19c13.1,0,23.8-10.6,23.8-23.8v-19c0-13.1-10.6-23.8-23.8-23.8h-19
		C24.4,13.8,13.8,24.4,13.8,37.5 M37.5,23.2h19c7.9,0,14.2,6.4,14.2,14.2v19c0,7.9-6.4,14.2-14.2,14.2h-19
		c-7.9,0-14.2-6.4-14.2-14.2v-19C23.2,29.6,29.6,23.2,37.5,23.2"/>
</g>
<g>
	<path class="st1" d="M183.2,140.5v19c0,13.1-10.6,23.8-23.8,23.8h-19c-13.1,0-23.8-10.6-23.8-23.8v-19c0-13.1,10.6-23.8,23.8-23.8
		h19C172.6,116.8,183.2,127.4,183.2,140.5z"/>
</g>
<g>
	<circle cx="47" cy="47" r="14.2"/>
</g>
<g>
	<path d="M265.5,13.8h-19c-13.1,0-23.8,10.6-23.8,23.8v19c0,13.1,10.6,23.8,23.8,23.8h19c13.1,0,23.8-10.6,23.8-23.8v-19
		C289.2,24.4,278.6,13.8,265.5,13.8 M279.8,37.5v19c0,7.9-6.4,14.2-14.2,14.2h-19c-7.9,0-14.2-6.4-14.2-14.2v-19
		c0-7.9,6.4-14.2,14.2-14.2h19C273.4,23.2,279.8,29.6,279.8,37.5"/>
</g>
<g>
	<circle cx="256" cy="47" r="14.2"/>
</g>
<g>
	<path d="M37.5,289.2h19c13.1,0,23.8-10.6,23.8-23.8v-19c0-13.1-10.6-23.8-23.8-23.8h-19c-13.1,0-23.8,10.6-23.8,23.8v19
		C13.8,278.6,24.4,289.2,37.5,289.2 M23.2,265.5v-19c0-7.9,6.4-14.2,14.2-14.2l0,0h19c7.9,0,14.2,6.4,14.2,14.2l0,0v19
		c0,7.9-6.4,14.2-14.2,14.2l0,0h-19C29.6,279.8,23.2,273.4,23.2,265.5L23.2,265.5"/>
</g>
<g>
	<circle cx="47" cy="256" r="14.2"/>
</g>
<g>
	<defs>
		<rect id="SVGID_1_" x="124.7" y="131.7" width="50.6" height="50.6"/>
	</defs>
	<clipPath id="SVGID_00000173842890349251801500000009857466248911724717_">
		<use xlink:href="#SVGID_1_"  style="overflow:visible;"/>
	</clipPath>
	<g style="clip-path:url(#SVGID_00000173842890349251801500000009857466248911724717_);">
		<path class="st3" d="M128.2,169.1h8v-19.3l-11.5-8.5v24.4C124.7,167.6,126.3,169.1,128.2,169.1z"/>
		<path class="st4" d="M163.8,169.1h8c1.9,0,3.4-1.5,3.4-3.4v-24.4l-11.5,8.5"/>
		<path class="st5" d="M163.8,135.1v14.7l11.5-8.5v-4.5c0-4.2-4.9-6.6-8.3-4.1"/>
		<path class="st6" d="M136.2,149.9v-14.7l13.8,10.2l13.8-10.2v14.7L150,160.1"/>
		<path class="st7" d="M124.7,136.8v4.5l11.5,8.5v-14.7l-3.2-2.4C129.6,130.2,124.7,132.6,124.7,136.8z"/>
	</g>
</g>
<path class="st0" d="z"/>
</svg>
