<?xml version="1.0" encoding="utf-8"?>
<!-- Generator: Adobe Illustrator 26.0.1, SVG Export Plug-In . SVG Version: 6.00 Build 0)  -->
<svg version="1.1" id="telegramLogotype" xmlns="http://www.w3.org/2000/svg" xmlns:xlink="http://www.w3.org/1999/xlink" x="0px"
	 y="0px" viewBox="0 0 300 300" style="enable-background:new 0 0 300 300;" xml:space="preserve">
<style type="text/css">
	.st0{fill:none;}
	.st1{fill:#0088CC;}
	.st2{fill:#FFFFFF;}
</style>
<path class="st0" d="z"/>
<g>
	<circle cx="18.5" cy="104" r="3.2"/>
	<circle cx="18.5" cy="132.5" r="3.2"/>
	<circle cx="18.5" cy="142" r="3.2"/>
	<circle cx="18.5" cy="151.5" r="3.2"/>
	<circle cx="28" cy="94.5" r="3.2"/>
	<circle cx="28" cy="104" r="3.2"/>
	<circle cx="28" cy="142" r="3.2"/>
	<circle cx="28" cy="170.5" r="3.2"/>
	<circle cx="28" cy="199" r="3.2"/>
	<circle cx="37.5" cy="104" r="3.2"/>
	<circle cx="37.5" cy="142" r="3.2"/>
	<circle cx="37.5" cy="151.5" r="3.2"/>
	<circle cx="37.5" cy="161" r="3.2"/>
	<circle cx="37.5" cy="208.5" r="3.2"/>
	<circle cx="47" cy="94.5" r="3.2"/>
	<circle cx="47" cy="104" r="3.2"/>
	<circle cx="47" cy="113.5" r="3.2"/>
	<circle cx="47" cy="123" r="3.2"/>
	<circle cx="47" cy="132.5" r="3.2"/>
	<circle cx="47" cy="142" r="3.2"/>
	<circle cx="47" cy="151.5" r="3.2"/>
	<circle cx="47" cy="170.5" r="3.2"/>
	<circle cx="47" cy="180" r="3.2"/>
	<circle cx="47" cy="208.5" r="3.2"/>
	<circle cx="56.5" cy="94.5" r="3.2"/>
	<circle cx="56.5" cy="123" r="3.2"/>
	<circle cx="56.5" cy="142" r="3.2"/>
	<circle cx="56.5" cy="180" r="3.2"/>
	<circle cx="56.5" cy="189.5" r="3.2"/>
	<circle cx="56.5" cy="199" r="3.2"/>
	<circle cx="66" cy="113.5" r="3.2"/>
	<circle cx="66" cy="170.5" r="3.2"/>
	<circle cx="66" cy="180" r="3.2"/>
	<circle cx="66" cy="189.5" r="3.2"/>
	<circle cx="75.5" cy="94.5" r="3.2"/>
	<circle cx="75.5" cy="113.5" r="3.2"/>
	<circle cx="75.5" cy="132.5" r="3.2"/>
	<circle cx="75.5" cy="151.5" r="3.2"/>
	<circle cx="75.5" cy="170.5" r="3.2"/>
	<circle cx="75.5" cy="189.5" r="3.2"/>
	<circle cx="75.5" cy="208.5" r="3.2"/>
	<circle cx="85" cy="94.5" r="3.2"/>
	<circle cx="85" cy="113.5" r="3.2"/>
	<circle cx="85" cy="132.5" r="3.2"/>
	<circle cx="85" cy="142" r="3.2"/>
	<circle cx="85" cy="161" r="3.2"/>
	<circle cx="94.5" cy="28" r="3.2"/>
	<circle cx="94.5" cy="47" r="3.2"/>
	<circle cx="94.5" cy="56.5" r="3.2"/>
	<circle cx="94.5" cy="66" r="3.2"/>
	<circle cx="94.5" cy="75.5" r="3.2"/>
	<circle cx="94.5" cy="94.5" r="3.2"/>
	<circle cx="94.5" cy="104" r="3.2"/>
	<circle cx="94.5" cy="142" r="3.2"/>
	<circle cx="94.5" cy="161" r="3.2"/>
	<circle cx="94.5" cy="170.5" r="3.2"/>
	<circle cx="94.5" cy="189.5" r="3.2"/>
	<circle cx="94.5" cy="208.5" r="3.2"/>
	<circle cx="94.5" cy="218" r="3.2"/>
	<circle cx="94.5" cy="227.5" r="3.2"/>
	<circle cx="94.5" cy="246.5" r="3.2"/>
	<circle cx="94.5" cy="256" r="3.2"/>
	<circle cx="94.5" cy="275" r="3.2"/>
	<circle cx="104" cy="28" r="3.2"/>
	<circle cx="104" cy="37.5" r="3.2"/>
	<circle cx="104" cy="47" r="3.2"/>
	<circle cx="104" cy="66" r="3.2"/>
	<circle cx="104" cy="85" r="3.2"/>
	<circle cx="104" cy="104" r="3.2"/>
	<circle cx="104" cy="113.5" r="3.2"/>
	<circle cx="104" cy="123" r="3.2"/>
	<circle cx="104" cy="132.5" r="3.2"/>
	<circle cx="104" cy="142" r="3.2"/>
	<circle cx="104" cy="170.5" r="3.2"/>
	<circle cx="104" cy="189.5" r="3.2"/>
	<circle cx="104" cy="199" r="3.2"/>
	<circle cx="104" cy="208.5" r="3.2"/>
	<circle cx="104" cy="218" r="3.2"/>
	<circle cx="104" cy="237" r="3.2"/>
	<circle cx="104" cy="246.5" r="3.2"/>
	<circle cx="104" cy="256" r="3.2"/>
	<circle cx="104" cy="275" r="3.2"/>
	<circle cx="113.5" cy="47" r="3.2"/>
	<circle cx="113.5" cy="75.5" r="3.2"/>
	<circle cx="113.5" cy="85" r="3.2"/>
	<circle cx="113.5" cy="94.5" r="3.2"/>
	<circle cx="113.5" cy="113.5" r="3.2"/>
	<circle cx="113.5" cy="132.5" r="3.2"/>
	<circle cx="113.5" cy="142" r="3.2"/>
	<circle cx="113.5" cy="170.5" r="3.2"/>
	<circle cx="113.5" cy="180" r="3.2"/>
	<circle cx="113.5" cy="218" r="3.2"/>
	<circle cx="113.5" cy="227.5" r="3.2"/>
	<circle cx="113.5" cy="237" r="3.2"/>
	<circle cx="113.5" cy="246.5" r="3.2"/>
	<circle cx="113.5" cy="256" r="3.2"/>
	<circle cx="123" cy="47" r="3.2"/>
	<circle cx="123" cy="56.5" r="3.2"/>
	<circle cx="123" cy="85" r="3.2"/>
	<circle cx="123" cy="104" r="3.2"/>
	<circle cx="123" cy="237" r="3.2"/>
	<circle cx="123" cy="256" r="3.2"/>
	<circle cx="123" cy="284.5" r="3.2"/>
	<circle cx="132.5" cy="28" r="3.2"/>
	<circle cx="132.5" cy="37.5" r="3.2"/>
	<circle cx="132.5" cy="66" r="3.2"/>
	<circle cx="132.5" cy="75.5" r="3.2"/>
	<circle cx="132.5" cy="94.5" r="3.2"/>
	<circle cx="132.5" cy="113.5" r="3.2"/>
	<circle cx="132.5" cy="189.5" r="3.2"/>
	<circle cx="132.5" cy="208.5" r="3.2"/>
	<circle cx="132.5" cy="218" r="3.2"/>
	<circle cx="132.5" cy="227.5" r="3.2"/>
	<ellipse transform="matrix(7.088915e-02 -0.9975 0.9975 7.088915e-02 -132.2488 370.019)" cx="132.5" cy="256" rx="3.2" ry="3.2"/>
	<ellipse transform="matrix(7.088915e-02 -0.9975 0.9975 7.088915e-02 -151.201 387.6721)" cx="132.5" cy="275" rx="3.2" ry="3.2"/>
	<circle cx="142" cy="18.5" r="3.2"/>
	<circle cx="142" cy="28" r="3.2"/>
	<circle cx="142" cy="47" r="3.2"/>
	<circle cx="142" cy="56.5" r="3.2"/>
	<circle cx="142" cy="66" r="3.2"/>
	<circle cx="142" cy="113.5" r="3.2"/>
	<circle cx="142" cy="189.5" r="3.2"/>
	<circle cx="142" cy="208.5" r="3.2"/>
	<circle cx="142" cy="227.5" r="3.2"/>
	<circle cx="142" cy="246.5" r="3.2"/>
	<circle cx="142" cy="265.5" r="3.2"/>
	<circle cx="142" cy="284.5" r="3.2"/>
	<circle cx="151.5" cy="47" r="3.2"/>
	<circle cx="151.5" cy="56.5" r="3.2"/>
	<circle cx="151.5" cy="66" r="3.2"/>
	<circle cx="151.5" cy="75.5" r="3.2"/>
	<circle cx="151.5" cy="85" r="3.2"/>
	<circle cx="151.5" cy="94.5" r="3.2"/>
	<circle cx="151.5" cy="104" r="3.2"/>
	<circle cx="151.5" cy="113.5" r="3.2"/>
	<circle cx="151.5" cy="199" r="3.2"/>
	<circle cx="151.5" cy="208.5" r="3.2"/>
	<circle cx="151.5" cy="218" r="3.2"/>
	<circle cx="151.5" cy="227.5" r="3.2"/>
	<circle cx="151.5" cy="237" r="3.2"/>
	<circle cx="151.5" cy="256" r="3.2"/>
	<circle cx="151.5" cy="284.5" r="3.2"/>
	<circle cx="161" cy="18.5" r="3.2"/>
	<circle cx="161" cy="66" r="3.2"/>
	<circle cx="161" cy="85" r="3.2"/>
	<circle cx="161" cy="104" r="3.2"/>
	<circle cx="161" cy="189.5" r="3.2"/>
	<circle cx="161" cy="208.5" r="3.2"/>
	<circle cx="161" cy="227.5" r="3.2"/>
	<circle cx="161" cy="246.5" r="3.2"/>
	<circle cx="161" cy="256" r="3.2"/>
	<circle cx="161" cy="265.5" r="3.2"/>
	<circle cx="161" cy="275" r="3.2"/>
	<circle cx="170.5" cy="37.5" r="3.2"/>
	<circle cx="170.5" cy="75.5" r="3.2"/>
	<circle cx="170.5" cy="85" r="3.2"/>
	<circle cx="170.5" cy="94.5" r="3.2"/>
	<circle cx="170.5" cy="208.5" r="3.2"/>
	<circle cx="170.5" cy="218" r="3.2"/>
	<circle cx="170.5" cy="256" r="3.2"/>
	<circle cx="170.5" cy="275" r="3.2"/>
	<circle cx="180" cy="18.5" r="3.2"/>
	<circle cx="180" cy="37.5" r="3.2"/>
	<circle cx="180" cy="47" r="3.2"/>
	<circle cx="180" cy="56.5" r="3.2"/>
	<circle cx="180" cy="85" r="3.2"/>
	<circle cx="180" cy="104" r="3.2"/>
	<circle cx="180" cy="189.5" r="3.2"/>
	<circle cx="180" cy="199" r="3.2"/>
	<circle cx="180" cy="208.5" r="3.2"/>
	<circle cx="180" cy="218" r="3.2"/>
	<circle cx="180" cy="246.5" r="3.2"/>
	<circle cx="180" cy="256" r="3.2"/>
	<circle cx="180" cy="265.5" r="3.2"/>
	<circle cx="189.5" cy="18.5" r="3.2"/>
	<circle cx="189.5" cy="28" r="3.2"/>
	<circle cx="189.5" cy="66" r="3.2"/>
	<circle cx="189.5" cy="75.5" r="3.2"/>
	<circle cx="189.5" cy="94.5" r="3.2"/>
	<circle cx="189.5" cy="113.5" r="3.2"/>
	<circle cx="189.5" cy="123" r="3.2"/>
	<circle cx="189.5" cy="132.5" r="3.2"/>
	<circle cx="189.5" cy="142" r="3.2"/>
	<circle cx="189.5" cy="161" r="3.2"/>
	<circle cx="189.5" cy="180" r="3.2"/>
	<circle cx="189.5" cy="199" r="3.2"/>
	<circle cx="189.5" cy="246.5" r="3.2"/>
	<circle cx="189.5" cy="265.5" r="3.2"/>
	<circle cx="189.5" cy="284.5" r="3.2"/>
	<circle cx="199" cy="18.5" r="3.2"/>
	<circle cx="199" cy="28" r="3.2"/>
	<circle cx="199" cy="37.5" r="3.2"/>
	<circle cx="199" cy="66" r="3.2"/>
	<circle cx="199" cy="104" r="3.2"/>
	<circle cx="199" cy="113.5" r="3.2"/>
	<circle cx="199" cy="132.5" r="3.2"/>
	<circle cx="199" cy="142" r="3.2"/>
	<circle cx="199" cy="151.5" r="3.2"/>
	<circle cx="199" cy="199" r="3.2"/>
	<circle cx="199" cy="218" r="3.2"/>
	<circle cx="199" cy="227.5" r="3.2"/>
	<circle cx="199" cy="246.5" r="3.2"/>
	<circle cx="199" cy="256" r="3.2"/>
	<circle cx="199" cy="265.5" r="3.2"/>
	<circle cx="208.5" cy="18.5" r="3.2"/>
	<circle cx="208.5" cy="28" r="3.2"/>
	<circle cx="208.5" cy="56.5" r="3.2"/>
	<circle cx="208.5" cy="66" r="3.2"/>
	<circle cx="208.5" cy="75.5" r="3.2"/>
	<circle cx="208.5" cy="85" r="3.2"/>
	<circle cx="208.5" cy="104" r="3.2"/>
	<circle cx="208.5" cy="113.5" r="3.2"/>
	<circle cx="208.5" cy="132.5" r="3.2"/>
	<circle cx="208.5" cy="161" r="3.2"/>
	<circle cx="208.5" cy="170.5" r="3.2"/>
	<circle cx="208.5" cy="180" r="3.2"/>
	<circle cx="208.5" cy="208.5" r="3.2"/>
	<circle cx="208.5" cy="218" r="3.2"/>
	<circle cx="208.5" cy="227.5" r="3.2"/>
	<circle cx="208.5" cy="237" r="3.2"/>
	<circle cx="208.5" cy="246.5" r="3.2"/>
	<circle cx="208.5" cy="256" r="3.2"/>
	<circle cx="208.5" cy="265.5" r="3.2"/>
	<circle cx="218" cy="94.5" r="3.2"/>
	<circle cx="218" cy="104" r="3.2"/>
	<circle cx="218" cy="132.5" r="3.2"/>
	<circle cx="218" cy="161" r="3.2"/>
	<circle cx="218" cy="170.5" r="3.2"/>
	<circle cx="218" cy="199" r="3.2"/>
	<circle cx="218" cy="208.5" r="3.2"/>
	<circle cx="218" cy="246.5" r="3.2"/>
	<circle cx="218" cy="256" r="3.2"/>
	<circle cx="218" cy="265.5" r="3.2"/>
	<circle cx="227.5" cy="113.5" r="3.2"/>
	<circle cx="227.5" cy="123" r="3.2"/>
	<circle cx="227.5" cy="132.5" r="3.2"/>
	<circle cx="227.5" cy="151.5" r="3.2"/>
	<circle cx="227.5" cy="161" r="3.2"/>
	<circle cx="227.5" cy="180" r="3.2"/>
	<circle cx="227.5" cy="189.5" r="3.2"/>
	<circle cx="227.5" cy="199" r="3.2"/>
	<circle cx="227.5" cy="208.5" r="3.2"/>
	<circle cx="227.5" cy="227.5" r="3.2"/>
	<circle cx="227.5" cy="246.5" r="3.2"/>
	<circle cx="227.5" cy="265.5" r="3.2"/>
	<circle cx="237" cy="94.5" r="3.2"/>
	<circle cx="237" cy="104" r="3.2"/>
	<circle cx="237" cy="123" r="3.2"/>
	<circle cx="237" cy="142" r="3.2"/>
	<circle cx="237" cy="151.5" r="3.2"/>
	<circle cx="237" cy="161" r="3.2"/>
	<circle cx="237" cy="170.5" r="3.2"/>
	<circle cx="237" cy="180" r="3.2"/>
	<circle cx="237" cy="199" r="3.2"/>
	<circle cx="237" cy="208.5" r="3.2"/>
	<circle cx="237" cy="246.5" r="3.2"/>
	<circle cx="237" cy="256" r="3.2"/>
	<circle cx="246.5" cy="94.5" r="3.2"/>
	<circle cx="246.5" cy="104" r="3.2"/>
	<circle cx="246.5" cy="161" r="3.2"/>
	<circle cx="246.5" cy="170.5" r="3.2"/>
	<circle cx="246.5" cy="180" r="3.2"/>
	<circle cx="246.5" cy="189.5" r="3.2"/>
	<circle cx="246.5" cy="199" r="3.2"/>
	<circle cx="246.5" cy="208.5" r="3.2"/>
	<circle cx="246.5" cy="218" r="3.2"/>
	<circle cx="246.5" cy="227.5" r="3.2"/>
	<circle cx="246.5" cy="237" r="3.2"/>
	<circle cx="246.5" cy="246.5" r="3.2"/>
	<circle cx="256" cy="94.5" r="3.2"/>
	<circle cx="256" cy="104" r="3.2"/>
	<circle cx="256" cy="113.5" r="3.2"/>
	<circle cx="256" cy="123" r="3.2"/>
	<circle cx="256" cy="132.5" r="3.2"/>
	<circle cx="256" cy="142" r="3.2"/>
	<circle cx="256" cy="170.5" r="3.2"/>
	<circle cx="256" cy="237" r="3.2"/>
	<circle cx="256" cy="275" r="3.2"/>
	<circle cx="265.5" cy="104" r="3.2"/>
	<circle cx="265.5" cy="123" r="3.2"/>
	<circle cx="265.5" cy="142" r="3.2"/>
	<circle cx="265.5" cy="170.5" r="3.2"/>
	<circle cx="265.5" cy="189.5" r="3.2"/>
	<circle cx="265.5" cy="208.5" r="3.2"/>
	<circle cx="265.5" cy="218" r="3.2"/>
	<circle cx="265.5" cy="237" r="3.2"/>
	<circle cx="265.5" cy="246.5" r="3.2"/>
	<circle cx="265.5" cy="265.5" r="3.2"/>
	<circle cx="265.5" cy="275" r="3.2"/>
	<circle cx="265.5" cy="284.5" r="3.2"/>
	<circle cx="275" cy="94.5" r="3.2"/>
	<circle cx="275" cy="104" r="3.2"/>
	<circle cx="275" cy="123" r="3.2"/>
	<circle cx="275" cy="132.5" r="3.2"/>
	<circle cx="275" cy="142" r="3.2"/>
	<circle cx="275" cy="151.5" r="3.2"/>
	<circle cx="275" cy="161" r="3.2"/>
	<circle cx="275" cy="218" r="3.2"/>
	<circle cx="275" cy="227.5" r="3.2"/>
	<circle cx="275" cy="246.5" r="3.2"/>
	<circle cx="275" cy="256" r="3.2"/>
	<circle cx="275" cy="265.5" r="3.2"/>
	<circle cx="275" cy="284.5" r="3.2"/>
	<circle cx="284.5" cy="104" r="3.2"/>
	<circle cx="284.5" cy="123" r="3.2"/>
	<circle cx="284.5" cy="132.5" r="3.2"/>
	<circle cx="284.5" cy="142" r="3.2"/>
	<circle cx="284.5" cy="151.5" r="3.2"/>
	<circle cx="284.5" cy="170.5" r="3.2"/>
	<circle cx="284.5" cy="199" r="3.2"/>
	<circle cx="284.5" cy="208.5" r="3.2"/>
	<circle cx="284.5" cy="218" r="3.2"/>
	<circle cx="284.5" cy="237" r="3.2"/>
	<circle cx="284.5" cy="246.5" r="3.2"/>
</g>
<g>
	<path d="M13.8,37.5v19c0,13.1,10.6,23.8,23.8,23.8h19c13.1,0,23.8-10.6,23.8-23.8v-19c0-13.1-10.6-23.8-23.8-23.8h-19
		C24.4,13.8,13.8,24.4,13.8,37.5 M37.5,23.2h19c7.9,0,14.2,6.4,14.2,14.2v19c0,7.9-6.4,14.2-14.2,14.2h-19
		c-7.9,0-14.2-6.4-14.2-14.2v-19C23.2,29.6,29.6,23.2,37.5,23.2"/>
</g>
<g>
	<circle cx="47" cy="47" r="14.2"/>
</g>
<g>
	<path d="M265.5,13.8h-19c-13.1,0-23.8,10.6-23.8,23.8v19c0,13.1,10.6,23.8,23.8,23.8h19c13.1,0,23.8-10.6,23.8-23.8v-19
		C289.2,24.4,278.6,13.8,265.5,13.8 M279.8,37.5v19c0,7.9-6.4,14.2-14.2,14.2h-19c-7.9,0-14.2-6.4-14.2-14.2v-19
		c0-7.9,6.4-14.2,14.2-14.2h19C273.4,23.2,279.8,29.6,279.8,37.5"/>
</g>
<g>
	<circle cx="256" cy="47" r="14.2"/>
</g>
<g>
	<path d="M37.5,289.2h19c13.1,0,23.8-10.6,23.8-23.8v-19c0-13.1-10.6-23.8-23.8-23.8h-19c-13.1,0-23.8,10.6-23.8,23.8v19
		C13.8,278.6,24.4,289.2,37.5,289.2 M23.2,265.5v-19c0-7.9,6.4-14.2,14.2-14.2l0,0h19c7.9,0,14.2,6.4,14.2,14.2l0,0v19
		c0,7.9-6.4,14.2-14.2,14.2l0,0h-19C29.6,279.8,23.2,273.4,23.2,265.5L23.2,265.5"/>
</g>
<g>
	<circle cx="47" cy="256" r="14.2"/>
</g>
<path class="st0" d="z"/>
<g>
	<g>
		<path class="st1" d="M183.2,140.5v19c0,13.1-10.6,23.8-23.8,23.8h-19c-13.1,0-23.8-10.6-23.8-23.8v-19c0-13.1,10.6-23.8,23.8-23.8
			h19C172.6,116.8,183.2,127.4,183.2,140.5z"/>
	</g>
	<path class="st2" d="M168.3,135.6c0.1,0.5,0.1,1,0.1,1.5c-0.6,5.9-3,20.3-4.2,27c-0.5,2.8-1.6,3.8-2.6,3.8
		c-1.7,0.2-3.1-0.8-4.7-1.9c-0.4-0.3-0.8-0.6-1.3-0.9c-1.7-1.1-3.1-2-4.4-2.9c-1.2-0.8-2.4-1.7-4-2.7c-3.2-2.1-1.8-3.4-0.1-5.1
		c0.3-0.3,0.6-0.6,0.9-0.9c0.1-0.1,0.8-0.7,1.7-1.6c2.9-2.7,8.5-7.9,8.7-8.5c0-0.1,0-0.5-0.2-0.7c-0.2-0.2-0.5-0.1-0.8-0.1
		c-0.3,0.1-5.6,3.6-15.8,10.5c-1.5,1-2.9,1.5-4.1,1.5c-1.3,0-3.9-0.8-5.8-1.4c-0.3-0.1-0.6-0.2-0.8-0.3c-1.9-0.6-3.4-1.1-3.2-2.2
		c0.1-0.7,1-1.4,2.8-2.1c10.9-4.8,18.2-7.9,21.9-9.4c10.4-4.3,12.6-5.1,14-5.1c0.3,0,1,0.1,1.5,0.4
		C168.1,134.9,168.3,135.3,168.3,135.6z"/>
</g>
</svg>
