<?xml version="1.0" encoding="utf-8"?>
<!-- Generator: Adobe Illustrator 26.0.1, SVG Export Plug-In . SVG Version: 6.00 Build 0)  -->
<svg version="1.1" id="whatsAppLogotype" xmlns="http://www.w3.org/2000/svg" xmlns:xlink="http://www.w3.org/1999/xlink" x="0px"
	 y="0px" viewBox="0 0 300 300" style="enable-background:new 0 0 300 300;" xml:space="preserve">
<style type="text/css">
	.st0{fill:url(#SVGID_1_);}
	.st1{fill:#FFFFFF;}
</style>
<g>
	<g>
		<circle cx="18.5" cy="95.1" r="3.2"/>
		<circle cx="18.5" cy="104.6" r="3.2"/>
		<circle cx="18.5" cy="114.1" r="3.2"/>
		<circle cx="18.5" cy="133.1" r="3.2"/>
		<circle cx="18.5" cy="142.6" r="3.2"/>
		<circle cx="18.5" cy="152.1" r="3.2"/>
		<circle cx="18.5" cy="161.6" r="3.2"/>
		<circle cx="18.5" cy="171.1" r="3.2"/>
		<circle cx="18.5" cy="190.1" r="3.2"/>
		<circle cx="28" cy="95.1" r="3.2"/>
		<circle cx="28" cy="104.6" r="3.2"/>
		<circle cx="28" cy="123.6" r="3.2"/>
		<circle cx="28" cy="133.1" r="3.2"/>
		<circle cx="28" cy="152.1" r="3.2"/>
		<circle cx="28" cy="171.1" r="3.2"/>
		<circle cx="37.5" cy="104.6" r="3.2"/>
		<circle cx="37.5" cy="114.1" r="3.2"/>
		<circle cx="37.5" cy="133.1" r="3.2"/>
		<circle cx="37.5" cy="152.1" r="3.2"/>
		<circle cx="47" cy="104.6" r="3.2"/>
		<circle cx="47" cy="114.1" r="3.2"/>
		<circle cx="47" cy="123.6" r="3.2"/>
		<circle cx="47" cy="133.1" r="3.2"/>
		<circle cx="47" cy="142.6" r="3.2"/>
		<circle cx="47" cy="152.1" r="3.2"/>
		<circle cx="47" cy="171.1" r="3.2"/>
		<circle cx="47" cy="180.6" r="3.2"/>
		<circle cx="47" cy="199.6" r="3.2"/>
		<circle cx="47" cy="209.1" r="3.2"/>
		<circle cx="56.5" cy="104.6" r="3.2"/>
		<circle cx="56.5" cy="152.1" r="3.2"/>
		<circle cx="56.5" cy="180.6" r="3.2"/>
		<circle cx="56.5" cy="190.1" r="3.2"/>
		<circle cx="56.5" cy="199.6" r="3.2"/>
		<circle cx="56.5" cy="209.1" r="3.2"/>
		<circle cx="66.1" cy="114.1" r="3.2"/>
		<circle cx="66.1" cy="123.6" r="3.2"/>
		<circle cx="66.1" cy="142.6" r="3.2"/>
		<circle cx="75.6" cy="95.1" r="3.2"/>
		<circle cx="75.6" cy="114.1" r="3.2"/>
		<circle cx="75.6" cy="133.1" r="3.2"/>
		<circle cx="75.6" cy="152.1" r="3.2"/>
		<circle cx="75.6" cy="171.1" r="3.2"/>
		<circle cx="75.6" cy="190.1" r="3.2"/>
		<circle cx="75.6" cy="209.1" r="3.2"/>
		<circle cx="85.1" cy="114.1" r="3.2"/>
		<circle cx="85.1" cy="133.1" r="3.2"/>
		<circle cx="85.1" cy="161.6" r="3.2"/>
		<circle cx="85.1" cy="199.6" r="3.2"/>
		<circle cx="85.1" cy="209.1" r="3.2"/>
		<circle cx="94.5" cy="28.6" r="3.2"/>
		<circle cx="94.5" cy="76.1" r="3.2"/>
		<circle cx="94.5" cy="85.6" r="3.2"/>
		<circle cx="94.5" cy="95.1" r="3.2"/>
		<circle cx="94.5" cy="104.6" r="3.2"/>
		<circle cx="94.5" cy="114.1" r="3.2"/>
		<circle cx="94.5" cy="161.6" r="3.2"/>
		<circle cx="94.5" cy="190.1" r="3.2"/>
		<circle cx="94.5" cy="199.6" r="3.2"/>
		<circle cx="94.5" cy="209.1" r="3.2"/>
		<circle cx="94.5" cy="218.6" r="3.2"/>
		<circle cx="94.5" cy="275.6" r="3.2"/>
		<circle cx="94.5" cy="285.1" r="3.2"/>
		<circle cx="104" cy="28.6" r="3.2"/>
		<circle cx="104" cy="38.1" r="3.2"/>
		<circle cx="104" cy="47.6" r="3.2"/>
		<circle cx="104" cy="66.6" r="3.2"/>
		<circle cx="104" cy="85.6" r="3.2"/>
		<circle cx="104" cy="104.6" r="3.2"/>
		<circle cx="104" cy="114.1" r="3.2"/>
		<circle cx="104" cy="142.6" r="3.2"/>
		<circle cx="104" cy="161.6" r="3.2"/>
		<circle cx="104" cy="190.1" r="3.2"/>
		<circle cx="104" cy="199.6" r="3.2"/>
		<circle cx="104" cy="218.6" r="3.2"/>
		<circle cx="104" cy="247.1" r="3.2"/>
		<circle cx="104" cy="256.6" r="3.2"/>
		<circle cx="104" cy="275.6" r="3.2"/>
		<circle cx="113.5" cy="38.1" r="3.2"/>
		<circle cx="113.5" cy="66.6" r="3.2"/>
		<circle cx="113.5" cy="76.1" r="3.2"/>
		<circle cx="113.5" cy="85.6" r="3.2"/>
		<circle cx="113.5" cy="95.1" r="3.2"/>
		<circle cx="113.5" cy="114.1" r="3.2"/>
		<circle cx="113.5" cy="133.1" r="3.2"/>
		<circle cx="113.5" cy="142.6" r="3.2"/>
		<circle cx="113.5" cy="152.1" r="3.2"/>
		<circle cx="113.5" cy="161.6" r="3.2"/>
		<circle cx="113.5" cy="171.1" r="3.2"/>
		<circle cx="113.5" cy="218.6" r="3.2"/>
		<circle cx="113.5" cy="228.1" r="3.2"/>
		<circle cx="113.5" cy="256.6" r="3.2"/>
		<circle cx="113.5" cy="266.1" r="3.2"/>
		<circle cx="123" cy="38.1" r="3.2"/>
		<circle cx="123" cy="47.6" r="3.2"/>
		<circle cx="123" cy="66.6" r="3.2"/>
		<circle cx="123" cy="85.6" r="3.2"/>
		<circle cx="123" cy="104.6" r="3.2"/>
		<circle cx="123" cy="114.1" r="3.2"/>
		<circle cx="123" cy="209.1" r="3.2"/>
		<circle cx="123" cy="228.1" r="3.2"/>
		<circle cx="123" cy="247.1" r="3.2"/>
		<circle cx="123" cy="256.6" r="3.2"/>
		<circle cx="132.6" cy="28.6" r="3.2"/>
		<circle cx="132.6" cy="38.1" r="3.2"/>
		<circle cx="132.6" cy="66.6" r="3.2"/>
		<circle cx="132.6" cy="76.1" r="3.2"/>
		<circle cx="132.6" cy="85.6" r="3.2"/>
		<circle cx="132.6" cy="95.1" r="3.2"/>
		<circle cx="132.6" cy="114.1" r="3.2"/>
		<circle cx="132.6" cy="190.1" r="3.2"/>
		<circle cx="132.6" cy="209.1" r="3.2"/>
		<circle cx="132.6" cy="218.6" r="3.2"/>
		<circle cx="132.6" cy="228.1" r="3.2"/>
		
			<ellipse transform="matrix(7.088914e-02 -0.9975 0.9975 7.088914e-02 -132.7571 370.5857)" cx="132.6" cy="256.6" rx="3.2" ry="3.2"/>
		
			<ellipse transform="matrix(7.088914e-02 -0.9975 0.9975 7.088914e-02 -151.7093 388.2388)" cx="132.6" cy="275.6" rx="3.2" ry="3.2"/>
		<circle cx="142.1" cy="19.1" r="3.2"/>
		<circle cx="142.1" cy="38.1" r="3.2"/>
		<circle cx="142.1" cy="47.6" r="3.2"/>
		<circle cx="142.1" cy="66.6" r="3.2"/>
		<circle cx="142.1" cy="85.6" r="3.2"/>
		<circle cx="142.1" cy="95.1" r="3.2"/>
		<circle cx="142.1" cy="114.1" r="3.2"/>
		<circle cx="142.1" cy="190.1" r="3.2"/>
		<circle cx="142.1" cy="199.6" r="3.2"/>
		<circle cx="142.1" cy="228.1" r="3.2"/>
		<circle cx="142.1" cy="247.1" r="3.2"/>
		<circle cx="142.1" cy="256.6" r="3.2"/>
		<circle cx="142.1" cy="285.1" r="3.2"/>
		<circle cx="151.6" cy="28.6" r="3.2"/>
		<circle cx="151.6" cy="47.6" r="3.2"/>
		<circle cx="151.6" cy="57.1" r="3.2"/>
		<circle cx="151.6" cy="66.6" r="3.2"/>
		<circle cx="151.6" cy="76.1" r="3.2"/>
		<circle cx="151.6" cy="95.1" r="3.2"/>
		<circle cx="151.6" cy="209.1" r="3.2"/>
		<circle cx="151.6" cy="218.6" r="3.2"/>
		<circle cx="151.6" cy="237.6" r="3.2"/>
		<circle cx="161.1" cy="28.6" r="3.2"/>
		<circle cx="161.1" cy="57.1" r="3.2"/>
		<circle cx="161.1" cy="85.6" r="3.2"/>
		<circle cx="161.1" cy="104.6" r="3.2"/>
		<circle cx="161.1" cy="114.1" r="3.2"/>
		<circle cx="161.1" cy="190.1" r="3.2"/>
		<circle cx="161.1" cy="209.1" r="3.2"/>
		<circle cx="161.1" cy="247.1" r="3.2"/>
		<circle cx="161.1" cy="256.6" r="3.2"/>
		<circle cx="161.1" cy="266.1" r="3.2"/>
		<circle cx="161.1" cy="275.6" r="3.2"/>
		<circle cx="170.6" cy="19.1" r="3.2"/>
		<circle cx="170.6" cy="28.6" r="3.2"/>
		<circle cx="170.6" cy="57.1" r="3.2"/>
		<circle cx="170.6" cy="76.1" r="3.2"/>
		<circle cx="170.6" cy="85.6" r="3.2"/>
		<circle cx="170.6" cy="104.6" r="3.2"/>
		<circle cx="170.6" cy="114.1" r="3.2"/>
		<circle cx="170.6" cy="256.6" r="3.2"/>
		<circle cx="170.6" cy="266.1" r="3.2"/>
		<circle cx="170.6" cy="275.6" r="3.2"/>
		<circle cx="180.1" cy="19.1" r="3.2"/>
		<circle cx="180.1" cy="38.1" r="3.2"/>
		<circle cx="180.1" cy="47.6" r="3.2"/>
		<circle cx="180.1" cy="66.6" r="3.2"/>
		<circle cx="180.1" cy="85.6" r="3.2"/>
		<circle cx="180.1" cy="95.1" r="3.2"/>
		<circle cx="180.1" cy="104.6" r="3.2"/>
		<circle cx="180.1" cy="190.1" r="3.2"/>
		<circle cx="180.1" cy="199.6" r="3.2"/>
		<circle cx="180.1" cy="209.1" r="3.2"/>
		<circle cx="180.1" cy="228.1" r="3.2"/>
		<circle cx="180.1" cy="237.6" r="3.2"/>
		<circle cx="180.1" cy="247.1" r="3.2"/>
		<circle cx="180.1" cy="256.6" r="3.2"/>
		<circle cx="180.1" cy="266.1" r="3.2"/>
		<circle cx="180.1" cy="285.1" r="3.2"/>
		<circle cx="189.6" cy="19.1" r="3.2"/>
		<circle cx="189.6" cy="28.6" r="3.2"/>
		<circle cx="189.6" cy="47.6" r="3.2"/>
		<circle cx="189.6" cy="66.6" r="3.2"/>
		<circle cx="189.6" cy="76.1" r="3.2"/>
		<circle cx="189.6" cy="95.1" r="3.2"/>
		<circle cx="189.6" cy="114.1" r="3.2"/>
		<circle cx="189.6" cy="133.1" r="3.2"/>
		<circle cx="189.6" cy="142.6" r="3.2"/>
		<circle cx="189.6" cy="161.6" r="3.2"/>
		<circle cx="189.6" cy="180.6" r="3.2"/>
		<circle cx="189.6" cy="199.6" r="3.2"/>
		<circle cx="189.6" cy="247.1" r="3.2"/>
		<circle cx="189.6" cy="266.1" r="3.2"/>
		<circle cx="189.6" cy="285.1" r="3.2"/>
		<circle cx="199.1" cy="19.1" r="3.2"/>
		<circle cx="199.1" cy="38.1" r="3.2"/>
		<circle cx="199.1" cy="66.6" r="3.2"/>
		<circle cx="199.1" cy="95.1" r="3.2"/>
		<circle cx="199.1" cy="104.6" r="3.2"/>
		<circle cx="199.1" cy="114.1" r="3.2"/>
		<circle cx="199.1" cy="209.1" r="3.2"/>
		<circle cx="199.1" cy="218.6" r="3.2"/>
		<circle cx="199.1" cy="228.1" r="3.2"/>
		<circle cx="199.1" cy="237.6" r="3.2"/>
		<circle cx="208.6" cy="19.1" r="3.2"/>
		<circle cx="208.6" cy="38.1" r="3.2"/>
		<circle cx="208.6" cy="66.6" r="3.2"/>
		<circle cx="208.6" cy="76.1" r="3.2"/>
		<circle cx="208.6" cy="85.6" r="3.2"/>
		<circle cx="208.6" cy="104.6" r="3.2"/>
		<circle cx="208.6" cy="133.1" r="3.2"/>
		<circle cx="208.6" cy="142.6" r="3.2"/>
		<circle cx="208.6" cy="161.6" r="3.2"/>
		<circle cx="208.6" cy="180.6" r="3.2"/>
		<circle cx="208.6" cy="209.1" r="3.2"/>
		<circle cx="208.6" cy="218.6" r="3.2"/>
		<circle cx="208.6" cy="228.1" r="3.2"/>
		<circle cx="208.6" cy="237.6" r="3.2"/>
		<circle cx="208.6" cy="247.1" r="3.2"/>
		<circle cx="208.6" cy="266.1" r="3.2"/>
		<circle cx="208.6" cy="285.1" r="3.2"/>
		<circle cx="218.1" cy="95.1" r="3.2"/>
		<circle cx="218.1" cy="104.6" r="3.2"/>
		<circle cx="218.1" cy="133.1" r="3.2"/>
		<circle cx="218.1" cy="161.6" r="3.2"/>
		<circle cx="218.1" cy="171.1" r="3.2"/>
		<circle cx="218.1" cy="199.6" r="3.2"/>
		<circle cx="218.1" cy="209.1" r="3.2"/>
		<circle cx="218.1" cy="247.1" r="3.2"/>
		<circle cx="218.1" cy="256.6" r="3.2"/>
		<circle cx="218.1" cy="266.1" r="3.2"/>
		<circle cx="227.6" cy="95.1" r="3.2"/>
		<circle cx="227.6" cy="114.1" r="3.2"/>
		<circle cx="227.6" cy="133.1" r="3.2"/>
		<circle cx="227.6" cy="161.6" r="3.2"/>
		<circle cx="227.6" cy="190.1" r="3.2"/>
		<circle cx="227.6" cy="199.6" r="3.2"/>
		<circle cx="227.6" cy="209.1" r="3.2"/>
		<circle cx="227.6" cy="228.1" r="3.2"/>
		<circle cx="227.6" cy="247.1" r="3.2"/>
		<circle cx="237.1" cy="104.6" r="3.2"/>
		<circle cx="237.1" cy="114.1" r="3.2"/>
		<circle cx="237.1" cy="142.6" r="3.2"/>
		<circle cx="237.1" cy="161.6" r="3.2"/>
		<circle cx="237.1" cy="199.6" r="3.2"/>
		<circle cx="237.1" cy="209.1" r="3.2"/>
		<circle cx="237.1" cy="247.1" r="3.2"/>
		<circle cx="237.1" cy="256.6" r="3.2"/>
		<circle cx="237.1" cy="285.1" r="3.2"/>
		<circle cx="246.6" cy="104.6" r="3.2"/>
		<circle cx="246.6" cy="133.1" r="3.2"/>
		<circle cx="246.6" cy="161.6" r="3.2"/>
		<circle cx="246.6" cy="171.1" r="3.2"/>
		<circle cx="246.6" cy="180.6" r="3.2"/>
		<circle cx="246.6" cy="190.1" r="3.2"/>
		<circle cx="246.6" cy="199.6" r="3.2"/>
		<circle cx="246.6" cy="209.1" r="3.2"/>
		<circle cx="246.6" cy="218.6" r="3.2"/>
		<circle cx="246.6" cy="228.1" r="3.2"/>
		<circle cx="246.6" cy="237.6" r="3.2"/>
		<circle cx="246.6" cy="247.1" r="3.2"/>
		<circle cx="256" cy="104.6" r="3.2"/>
		<circle cx="256" cy="123.6" r="3.2"/>
		<circle cx="256" cy="133.1" r="3.2"/>
		<circle cx="256" cy="171.1" r="3.2"/>
		<circle cx="256" cy="199.6" r="3.2"/>
		<circle cx="256" cy="209.1" r="3.2"/>
		<circle cx="256" cy="237.6" r="3.2"/>
		<circle cx="256" cy="256.6" r="3.2"/>
		<circle cx="256" cy="266.1" r="3.2"/>
		<circle cx="256" cy="275.6" r="3.2"/>
		<circle cx="265.5" cy="104.6" r="3.2"/>
		<circle cx="265.5" cy="114.1" r="3.2"/>
		<circle cx="265.5" cy="133.1" r="3.2"/>
		<circle cx="265.5" cy="190.1" r="3.2"/>
		<circle cx="265.5" cy="199.6" r="3.2"/>
		<circle cx="265.5" cy="209.1" r="3.2"/>
		<circle cx="265.5" cy="218.6" r="3.2"/>
		<circle cx="265.5" cy="228.1" r="3.2"/>
		<circle cx="265.5" cy="237.6" r="3.2"/>
		<circle cx="265.5" cy="247.1" r="3.2"/>
		<circle cx="265.5" cy="256.6" r="3.2"/>
		<circle cx="265.5" cy="266.1" r="3.2"/>
		<circle cx="265.5" cy="275.6" r="3.2"/>
		<circle cx="275" cy="95.1" r="3.2"/>
		<circle cx="275" cy="104.6" r="3.2"/>
		<circle cx="275" cy="142.6" r="3.2"/>
		<circle cx="275" cy="152.1" r="3.2"/>
		<circle cx="275" cy="161.6" r="3.2"/>
		<circle cx="275" cy="199.6" r="3.2"/>
		<circle cx="275" cy="247.1" r="3.2"/>
		<circle cx="275" cy="256.6" r="3.2"/>
		<circle cx="275" cy="266.1" r="3.2"/>
		<circle cx="275" cy="285.1" r="3.2"/>
		<circle cx="284.5" cy="104.6" r="3.2"/>
		<circle cx="284.5" cy="123.6" r="3.2"/>
		<circle cx="284.5" cy="133.1" r="3.2"/>
		<circle cx="284.5" cy="142.6" r="3.2"/>
		<circle cx="284.5" cy="171.1" r="3.2"/>
		<circle cx="284.5" cy="180.6" r="3.2"/>
		<circle cx="284.5" cy="199.6" r="3.2"/>
		<circle cx="284.5" cy="247.1" r="3.2"/>
		<circle cx="284.5" cy="266.1" r="3.2"/>
	</g>
	<g>
		<path d="M13.8,38.1v19c0,13.1,10.6,23.8,23.8,23.8h19c13.1,0,23.8-10.6,23.8-23.8v-19c0-13.1-10.6-23.8-23.8-23.8h-19
			C24.4,14.3,13.8,24.9,13.8,38.1 M37.5,23.8h19c7.9,0,14.3,6.4,14.3,14.3v19c0,7.9-6.4,14.2-14.3,14.2h-19
			c-7.9,0-14.2-6.4-14.2-14.2v-19C23.3,30.2,29.7,23.8,37.5,23.8"/>
	</g>
	<g>
		<circle cx="47" cy="47.6" r="14.2"/>
	</g>
	<g>
		<path d="M265.5,14.3h-19c-13.1,0-23.8,10.6-23.8,23.8v19c0,13.1,10.6,23.8,23.8,23.8h19c13.1,0,23.8-10.6,23.8-23.8v-19
			C289.3,24.9,278.7,14.3,265.5,14.3 M279.8,38.1v19c0,7.9-6.4,14.2-14.2,14.2h-19c-7.9,0-14.2-6.4-14.2-14.2v-19
			c0-7.9,6.4-14.3,14.2-14.3h19C273.4,23.8,279.8,30.2,279.8,38.1"/>
	</g>
	<g>
		<circle cx="256" cy="47.6" r="14.2"/>
	</g>
	<g>
		<path d="M37.5,289.8h19c13.1,0,23.8-10.6,23.8-23.8v-19c0-13.1-10.6-23.8-23.8-23.8h-19c-13.1,0-23.8,10.6-23.8,23.8v19
			C13.8,279.2,24.4,289.8,37.5,289.8 M23.3,266.1v-19c0-7.9,6.4-14.2,14.2-14.2l0,0h19c7.9,0,14.3,6.4,14.3,14.2l0,0v19
			c0,7.9-6.4,14.2-14.3,14.2l0,0h-19C29.7,280.3,23.3,273.9,23.3,266.1L23.3,266.1"/>
	</g>
	<g>
		<circle cx="47" cy="256.6" r="14.2"/>
	</g>
</g>
<g>
	<g>
		
			<linearGradient id="SVGID_1_" gradientUnits="userSpaceOnUse" x1="116.75" y1="152" x2="183.25" y2="152" gradientTransform="matrix(1 0 0 -1 0 302)">
			<stop  offset="0" style="stop-color:#20B038"/>
			<stop  offset="1" style="stop-color:#60D66A"/>
		</linearGradient>
		<path class="st0" d="M183.2,140.5v19c0,13.1-10.6,23.8-23.8,23.8h-19c-13.1,0-23.8-10.6-23.8-23.8v-19c0-13.1,10.6-23.8,23.8-23.8
			h19C172.6,116.8,183.2,127.4,183.2,140.5z"/>
	</g>
	<path class="st1" d="M164.2,133.5c-3.7-3.8-8.8-5.9-14.2-5.9c-11,0-20,9-20,20c0,3.5,0.9,7,2.7,10l-2.8,10.4l10.6-2.8
		c2.9,1.6,6.2,2.4,9.6,2.4l0,0c11,0,20-9,20-20C170.1,142.3,168,137.2,164.2,133.5z M150.1,164.3c-3,0-5.9-0.8-8.5-2.3l-0.6-0.4
		l-6.3,1.7l1.7-6.1l-0.4-0.6c-1.7-2.7-2.6-5.7-2.5-8.9c0-9.2,7.5-16.6,16.7-16.6c4.4,0,8.7,1.7,11.8,4.9c3.1,3.1,4.9,7.4,4.9,11.8
		C166.7,156.8,159.2,164.3,150.1,164.3z M159.2,151.8c-0.5-0.3-3-1.5-3.4-1.6c-0.5-0.2-0.8-0.2-1.1,0.3s-1.3,1.6-1.6,2
		c-0.3,0.3-0.6,0.4-1.1,0.1c-0.5-0.3-2.1-0.8-4-2.5c-1.5-1.3-2.5-3-2.8-3.5s0-0.8,0.2-1s0.5-0.6,0.7-0.9c0.2-0.3,0.3-0.5,0.5-0.8
		s0.1-0.6,0-0.9c-0.1-0.3-1.1-2.7-1.5-3.7s-0.8-0.8-1.1-0.9c-0.3,0-0.6,0-1,0c-0.3,0-0.9,0.1-1.3,0.6c-0.5,0.5-1.7,1.7-1.7,4.2
		s1.8,4.8,2,5.2c0.2,0.3,3.5,5.4,8.5,7.6c1.2,0.5,2.1,0.8,2.9,1.1c1.2,0.4,2.3,0.3,3.1,0.2c1-0.1,3-1.2,3.4-2.4s0.4-2.2,0.3-2.4
		C160,152.2,159.7,152.1,159.2,151.8L159.2,151.8z"/>
</g>
</svg>
